solid defender_mount_slot_template
 facet normal 0 0 -1
  outer loop
   vertex -110 2.6 0
   vertex 110 11 0
   vertex 110 2.6 0
  endloop
 endfacet
 facet normal 0 0 -1
  outer loop
   vertex -110 2.6 0
   vertex -110 11 0
   vertex 110 11 0
  endloop
 endfacet
 facet normal 0 0 1
  outer loop
   vertex -110 2.6 3
   vertex 110 2.6 3
   vertex 110 11 3
  endloop
 endfacet
 facet normal 0 0 1
  outer loop
   vertex -110 2.6 3
   vertex 110 11 3
   vertex -110 11 3
  endloop
 endfacet
 facet normal 0 -1 0
  outer loop
   vertex -110 2.6 0
   vertex 110 2.6 0
   vertex 110 2.6 3
  endloop
 endfacet
 facet normal 0 -1 0
  outer loop
   vertex -110 2.6 0
   vertex 110 2.6 3
   vertex -110 2.6 3
  endloop
 endfacet
 facet normal 1 0 0
  outer loop
   vertex 110 2.6 0
   vertex 110 11 0
   vertex 110 11 3
  endloop
 endfacet
 facet normal 1 0 0
  outer loop
   vertex 110 2.6 0
   vertex 110 11 3
   vertex 110 2.6 3
  endloop
 endfacet
 facet normal 0 1 0
  outer loop
   vertex 110 11 0
   vertex -110 11 0
   vertex -110 11 3
  endloop
 endfacet
 facet normal 0 1 -0
  outer loop
   vertex 110 11 0
   vertex -110 11 3
   vertex 110 11 3
  endloop
 endfacet
 facet normal -1 0 0
  outer loop
   vertex -110 11 0
   vertex -110 2.6 0
   vertex -110 2.6 3
  endloop
 endfacet
 facet normal -1 0 0
  outer loop
   vertex -110 11 0
   vertex -110 2.6 3
   vertex -110 11 3
  endloop
 endfacet
 facet normal 0 0 -1
  outer loop
   vertex -110 -11 0
   vertex 110 -2.6 0
   vertex 110 -11 0
  endloop
 endfacet
 facet normal 0 0 -1
  outer loop
   vertex -110 -11 0
   vertex -110 -2.6 0
   vertex 110 -2.6 0
  endloop
 endfacet
 facet normal 0 0 1
  outer loop
   vertex -110 -11 3
   vertex 110 -11 3
   vertex 110 -2.6 3
  endloop
 endfacet
 facet normal 0 0 1
  outer loop
   vertex -110 -11 3
   vertex 110 -2.6 3
   vertex -110 -2.6 3
  endloop
 endfacet
 facet normal 0 -1 0
  outer loop
   vertex -110 -11 0
   vertex 110 -11 0
   vertex 110 -11 3
  endloop
 endfacet
 facet normal 0 -1 0
  outer loop
   vertex -110 -11 0
   vertex 110 -11 3
   vertex -110 -11 3
  endloop
 endfacet
 facet normal 1 0 0
  outer loop
   vertex 110 -11 0
   vertex 110 -2.6 0
   vertex 110 -2.6 3
  endloop
 endfacet
 facet normal 1 0 0
  outer loop
   vertex 110 -11 0
   vertex 110 -2.6 3
   vertex 110 -11 3
  endloop
 endfacet
 facet normal 0 1 0
  outer loop
   vertex 110 -2.6 0
   vertex -110 -2.6 0
   vertex -110 -2.6 3
  endloop
 endfacet
 facet normal 0 1 -0
  outer loop
   vertex 110 -2.6 0
   vertex -110 -2.6 3
   vertex 110 -2.6 3
  endloop
 endfacet
 facet normal -1 0 0
  outer loop
   vertex -110 -2.6 0
   vertex -110 -11 0
   vertex -110 -11 3
  endloop
 endfacet
 facet normal -1 0 0
  outer loop
   vertex -110 -2.6 0
   vertex -110 -11 3
   vertex -110 -2.6 3
  endloop
 endfacet
 facet normal 0 0 -1
  outer loop
   vertex -110 -2.6 0
   vertex -105 2.6 0
   vertex -105 -2.6 0
  endloop
 endfacet
 facet normal 0 0 -1
  outer loop
   vertex -110 -2.6 0
   vertex -110 2.6 0
   vertex -105 2.6 0
  endloop
 endfacet
 facet normal 0 0 1
  outer loop
   vertex -110 -2.6 3
   vertex -105 -2.6 3
   vertex -105 2.6 3
  endloop
 endfacet
 facet normal 0 0 1
  outer loop
   vertex -110 -2.6 3
   vertex -105 2.6 3
   vertex -110 2.6 3
  endloop
 endfacet
 facet normal 0 -1 0
  outer loop
   vertex -110 -2.6 0
   vertex -105 -2.6 0
   vertex -105 -2.6 3
  endloop
 endfacet
 facet normal 0 -1 0
  outer loop
   vertex -110 -2.6 0
   vertex -105 -2.6 3
   vertex -110 -2.6 3
  endloop
 endfacet
 facet normal 1 0 0
  outer loop
   vertex -105 -2.6 0
   vertex -105 2.6 0
   vertex -105 2.6 3
  endloop
 endfacet
 facet normal 1 0 0
  outer loop
   vertex -105 -2.6 0
   vertex -105 2.6 3
   vertex -105 -2.6 3
  endloop
 endfacet
 facet normal 0 1 0
  outer loop
   vertex -105 2.6 0
   vertex -110 2.6 0
   vertex -110 2.6 3
  endloop
 endfacet
 facet normal 0 1 -0
  outer loop
   vertex -105 2.6 0
   vertex -110 2.6 3
   vertex -105 2.6 3
  endloop
 endfacet
 facet normal -1 0 0
  outer loop
   vertex -110 2.6 0
   vertex -110 -2.6 0
   vertex -110 -2.6 3
  endloop
 endfacet
 facet normal -1 0 0
  outer loop
   vertex -110 2.6 0
   vertex -110 -2.6 3
   vertex -110 2.6 3
  endloop
 endfacet
 facet normal 0 0 -1
  outer loop
   vertex -65 -2.6 0
   vertex 65 2.6 0
   vertex 65 -2.6 0
  endloop
 endfacet
 facet normal 0 0 -1
  outer loop
   vertex -65 -2.6 0
   vertex -65 2.6 0
   vertex 65 2.6 0
  endloop
 endfacet
 facet normal 0 0 1
  outer loop
   vertex -65 -2.6 3
   vertex 65 -2.6 3
   vertex 65 2.6 3
  endloop
 endfacet
 facet normal 0 0 1
  outer loop
   vertex -65 -2.6 3
   vertex 65 2.6 3
   vertex -65 2.6 3
  endloop
 endfacet
 facet normal 0 -1 0
  outer loop
   vertex -65 -2.6 0
   vertex 65 -2.6 0
   vertex 65 -2.6 3
  endloop
 endfacet
 facet normal 0 -1 0
  outer loop
   vertex -65 -2.6 0
   vertex 65 -2.6 3
   vertex -65 -2.6 3
  endloop
 endfacet
 facet normal 1 0 0
  outer loop
   vertex 65 -2.6 0
   vertex 65 2.6 0
   vertex 65 2.6 3
  endloop
 endfacet
 facet normal 1 0 0
  outer loop
   vertex 65 -2.6 0
   vertex 65 2.6 3
   vertex 65 -2.6 3
  endloop
 endfacet
 facet normal 0 1 0
  outer loop
   vertex 65 2.6 0
   vertex -65 2.6 0
   vertex -65 2.6 3
  endloop
 endfacet
 facet normal 0 1 -0
  outer loop
   vertex 65 2.6 0
   vertex -65 2.6 3
   vertex 65 2.6 3
  endloop
 endfacet
 facet normal -1 0 0
  outer loop
   vertex -65 2.6 0
   vertex -65 -2.6 0
   vertex -65 -2.6 3
  endloop
 endfacet
 facet normal -1 0 0
  outer loop
   vertex -65 2.6 0
   vertex -65 -2.6 3
   vertex -65 2.6 3
  endloop
 endfacet
 facet normal 0 0 -1
  outer loop
   vertex 105 -2.6 0
   vertex 110 2.6 0
   vertex 110 -2.6 0
  endloop
 endfacet
 facet normal 0 0 -1
  outer loop
   vertex 105 -2.6 0
   vertex 105 2.6 0
   vertex 110 2.6 0
  endloop
 endfacet
 facet normal 0 0 1
  outer loop
   vertex 105 -2.6 3
   vertex 110 -2.6 3
   vertex 110 2.6 3
  endloop
 endfacet
 facet normal 0 0 1
  outer loop
   vertex 105 -2.6 3
   vertex 110 2.6 3
   vertex 105 2.6 3
  endloop
 endfacet
 facet normal 0 -1 0
  outer loop
   vertex 105 -2.6 0
   vertex 110 -2.6 0
   vertex 110 -2.6 3
  endloop
 endfacet
 facet normal 0 -1 0
  outer loop
   vertex 105 -2.6 0
   vertex 110 -2.6 3
   vertex 105 -2.6 3
  endloop
 endfacet
 facet normal 1 0 0
  outer loop
   vertex 110 -2.6 0
   vertex 110 2.6 0
   vertex 110 2.6 3
  endloop
 endfacet
 facet normal 1 0 0
  outer loop
   vertex 110 -2.6 0
   vertex 110 2.6 3
   vertex 110 -2.6 3
  endloop
 endfacet
 facet normal 0 1 0
  outer loop
   vertex 110 2.6 0
   vertex 105 2.6 0
   vertex 105 2.6 3
  endloop
 endfacet
 facet normal 0 1 -0
  outer loop
   vertex 110 2.6 0
   vertex 105 2.6 3
   vertex 110 2.6 3
  endloop
 endfacet
 facet normal -1 0 0
  outer loop
   vertex 105 2.6 0
   vertex 105 -2.6 0
   vertex 105 -2.6 3
  endloop
 endfacet
 facet normal -1 0 0
  outer loop
   vertex 105 2.6 0
   vertex 105 -2.6 3
   vertex 105 2.6 3
  endloop
 endfacet
endsolid defender_mount_slot_template
